<?xml version="1.0" encoding="UTF-8" standalone="no"?>
<!-- Created with Inkscape (http://www.inkscape.org/) -->

<svg
   xmlns:dc="http://purl.org/dc/elements/1.1/"
   xmlns:cc="http://creativecommons.org/ns#"
   xmlns:rdf="http://www.w3.org/1999/02/22-rdf-syntax-ns#"
   xmlns:svg="http://www.w3.org/2000/svg"
   xmlns="http://www.w3.org/2000/svg"
   xmlns:sodipodi="http://sodipodi.sourceforge.net/DTD/sodipodi-0.dtd"
   xmlns:inkscape="http://www.inkscape.org/namespaces/inkscape"
   width="512"
   height="512"
   id="svg2"
   inkscape:label="Pozadí"
   version="1.1"
   inkscape:version="0.48.3.1 r9886"
   sodipodi:docname="write_icon.svg"
   inkscape:export-filename="/home/tassadar/lorris_mobile/res/drawable-xhdpi/write.png"
   inkscape:export-xdpi="11.25"
   inkscape:export-ydpi="11.25">
  <defs
     id="defs3806" />
  <sodipodi:namedview
     id="base"
     pagecolor="#ffffff"
     bordercolor="#666666"
     borderopacity="1.0"
     inkscape:pageopacity="0.0"
     inkscape:pageshadow="2"
     inkscape:zoom="0.98994949"
     inkscape:cx="80.075797"
     inkscape:cy="264.22026"
     inkscape:document-units="px"
     inkscape:current-layer="layer1"
     showgrid="false"
     inkscape:window-width="1366"
     inkscape:window-height="720"
     inkscape:window-x="-4"
     inkscape:window-y="-3"
     inkscape:window-maximized="1" />
  <metadata
     id="metadata3809">
    <rdf:RDF>
      <cc:Work
         rdf:about="">
        <dc:format>image/svg+xml</dc:format>
        <dc:type
           rdf:resource="http://purl.org/dc/dcmitype/StillImage" />
        <dc:title></dc:title>
      </cc:Work>
    </rdf:RDF>
  </metadata>
  <g
     inkscape:label="Vrstva 1"
     inkscape:groupmode="layer"
     id="layer1"
     transform="translate(0,-540.36218)">
    <path
       style="fill:#55555f;fill-opacity:0.94117647;stroke:none"
       d="m 58.96875,602.92468 0,39.5 -46.5625,0 0,37.125 46.5625,0 0,29.84375 -46.5625,0 0,37.125 46.5625,0 0,29.84375 -46.5625,0 0,37.125 46.5625,0 0,29.84375 -46.5625,0 0,37.125 46.5625,0 0,29.84375 -46.5625,0 0,37.125 46.5625,0 0,42.375 245.0625,0 0,-42.375 49.25,0 0,-37.125 -49.25,0 0,-29.84375 49.25,0 0,-37.125 -49.25,0 0,-29.84375 49.25,0 0,-37.125 -49.25,0 0,-29.84375 49.25,0 0,-37.125 -49.25,0 0,-29.84375 49.25,0 0,-37.125 -49.25,0 0,-39.5 -245.0625,0 z"
       id="rect3950"
       inkscape:connector-curvature="0" />
  </g>
  <g
     inkscape:groupmode="layer"
     id="layer2"
     inkscape:label="sipka">
    <path
       style="fill:#00ff00;fill-opacity:1;fill-rule:nonzero;stroke:#000000;stroke-width:15.12847232999999925;stroke-miterlimit:4;stroke-opacity:0.99568963;stroke-dasharray:none"
       d="m 272.20046,117.29125 -144.34274,138.70874 144.34274,138.70876 0,-73.34573 215.84822,0 0,-130.72604 -215.84822,0 0,-73.34572 z"
       id="rect3999"
       inkscape:connector-curvature="0" />
  </g>
</svg>
